<svg version="1.1" xmlns="http://www.w3.org/2000/svg" xmlns:xlink="http://www.w3.org/1999/xlink" width="132.03472" height="132.03508" viewBox="0,0,132.03472,132.03508"><g transform="translate(-173.98264,-113.98246)"><g data-paper-data="{&quot;isPaintingLayer&quot;:true}" stroke="none" stroke-dasharray="" stroke-dashoffset="0" style="mix-blend-mode: normal"><path d="M193.5411,226.42514c-25.50649,-25.50649 -26.64321,-65.78583 0,-92.42903c26.64321,-26.6432 65.70254,-26.7265 92.42905,0c26.72651,26.7265 26.73271,65.69633 0,92.42903c-26.73271,26.73271 -66.92256,25.50649 -92.42905,0z" fill="#dbdbdb" fill-rule="nonzero" stroke-width="1" stroke-linecap="butt" stroke-linejoin="miter" stroke-miterlimit="10"/><g fill="#233c57" fill-rule="evenodd"><path d="M262.87022,146.92899l-2.0339,5.95077l5.03039,3.77271l-6.28633,-0.09591l-2.03483,5.95008l-1.85171,-6.0089l-6.28702,-0.09499l5.14224,-3.61958l-1.8524,-6.00797l5.03039,3.77271z" stroke-width="1" stroke-linecap="butt" stroke-linejoin="round" stroke-miterlimit="2"/><path d="M215.17885,204.36311l4.64853,-0.42468l0.42467,4.64853l-4.64853,0.42467z" data-paper-data="{&quot;index&quot;:null}" stroke-width="1" stroke-linecap="butt" stroke-linejoin="round" stroke-miterlimit="2"/><path d="M253.73287,159.12092l0.91658,2.20022l-1.44747,1.8939l-2.36368,-0.3068l-0.91658,-2.20021l1.44747,-1.89391z" stroke-width="1" stroke-linecap="butt" stroke-linejoin="round" stroke-miterlimit="2"/><path d="M252.78814,164.28419c0.22303,1.0343 -0.00123,2.15737 -0.7096,3.05092c-1.25641,1.58487 -3.56264,1.85147 -5.14752,0.59507c-1.58487,-1.25641 -1.85149,-3.56264 -0.59507,-5.14752c0.68277,-0.86127 1.67554,-1.33345 2.69501,-1.38324c-0.60805,0.50738 -0.95668,1.30125 -0.8591,2.14533c0.15388,1.33111 1.35935,2.28723 2.69046,2.13336c0.87139,-0.10067 1.58169,-0.65203 1.92582,-1.39392z" stroke-width="1" stroke-linecap="butt" stroke-linejoin="round" stroke-miterlimit="2"/><path d="M241.58552,180.41013l-5.17743,-3.9042l3.9042,-5.17745l5.17743,3.90422z" stroke-width="1" stroke-linecap="butt" stroke-linejoin="round" stroke-miterlimit="2"/><path d="M246.17134,168.94411l-0.74049,6.36742l-5.17783,-3.9045z" stroke-width="1" stroke-linecap="round" stroke-linejoin="miter" stroke-miterlimit="1.5"/><path d="M237.80604,185.50082l-5.17743,-3.9042l3.9042,-5.17745l5.17745,3.9042z" stroke-width="1" stroke-linecap="butt" stroke-linejoin="round" stroke-miterlimit="2"/><path d="M225.17934,191.44807l5.17743,3.90422l-3.9042,5.17743l-5.17743,-3.9042z" data-paper-data="{&quot;index&quot;:null}" stroke-width="1" stroke-linecap="butt" stroke-linejoin="round" stroke-miterlimit="2"/><path d="M220.59351,202.91409l0.74049,-6.36742l5.17783,3.9045z" data-paper-data="{&quot;index&quot;:null}" stroke-width="1" stroke-linecap="round" stroke-linejoin="miter" stroke-miterlimit="1.5"/><path d="M228.95882,186.47466l5.17745,3.9042l-3.9042,5.17743l-5.17745,-3.9042z" data-paper-data="{&quot;index&quot;:null}" stroke-width="1" stroke-linecap="butt" stroke-linejoin="round" stroke-miterlimit="2"/><path d="M232.82818,181.4296l5.17745,3.9042l-3.90422,5.17745l-5.17743,-3.90422z" data-paper-data="{&quot;index&quot;:null}" stroke-width="1" stroke-linecap="butt" stroke-linejoin="round" stroke-miterlimit="2"/><path d="M267.26426,148.6935c0,1.00067 0.81121,1.81188 1.81189,1.81188c-1.00068,0.00001 -1.81189,0.81123 -1.81189,1.81189c0,-1.00067 -0.81121,-1.81188 -1.81188,-1.81189c1.00068,-0.00001 1.81188,-0.81121 1.81188,-1.81188z" stroke-width="0.17306" stroke-linecap="butt" stroke-linejoin="round" stroke-miterlimit="10"/><path d="M247.85571,150.13026c0,1.00067 0.81121,1.81188 1.81189,1.81188c-1.00068,0 -1.81189,0.81121 -1.81189,1.81188c0,-1.00067 -0.81121,-1.81188 -1.81188,-1.81188c1.00068,0 1.81188,-0.81121 1.81188,-1.81188z" stroke-width="0.17306" stroke-linecap="butt" stroke-linejoin="round" stroke-miterlimit="10"/><path d="M263.04963,159.39485c0,1.00067 0.81121,1.81188 1.81188,1.81189c-1.00068,0 -1.81188,0.81121 -1.81188,1.81188c0,-1.00067 -0.81121,-1.81188 -1.81189,-1.81188c1.00068,0 1.81189,-0.81121 1.81189,-1.81189z" stroke-width="0.17306" stroke-linecap="butt" stroke-linejoin="round" stroke-miterlimit="10"/><path d="M222.27689,205.247l0.89266,-0.83537l0.83537,0.89268l-0.89268,0.83537z" data-paper-data="{&quot;index&quot;:null}" stroke-width="1" stroke-linecap="butt" stroke-linejoin="round" stroke-miterlimit="2"/><path d="M210.92386,205.89547l0.89268,-0.83537l0.83536,0.89268l-0.89266,0.83536z" data-paper-data="{&quot;index&quot;:null}" stroke-width="1" stroke-linecap="butt" stroke-linejoin="round" stroke-miterlimit="2"/><path d="M216.2967,212.84232l0.38248,-1.1612l1.16122,0.38247l-0.38248,1.16122z" data-paper-data="{&quot;index&quot;:null}" stroke-width="1" stroke-linecap="butt" stroke-linejoin="round" stroke-miterlimit="2"/></g></g></g></svg>
