<?xml version="1.0" encoding="UTF-8" standalone="no"?>
<!-- Created with Inkscape (http://www.inkscape.org/) -->

<svg
   width="210mm"
   height="297mm"
   viewBox="0 0 210 297"
   version="1.1"
   id="svg5"
   xml:space="preserve"
   sodipodi:docname="rogo.svg"
   inkscape:version="1.2.1 (9c6d41e410, 2022-07-14)"
   xmlns:inkscape="http://www.inkscape.org/namespaces/inkscape"
   xmlns:sodipodi="http://sodipodi.sourceforge.net/DTD/sodipodi-0.dtd"
   xmlns="http://www.w3.org/2000/svg"
   xmlns:svg="http://www.w3.org/2000/svg"><sodipodi:namedview
     id="namedview7"
     pagecolor="#ffffff"
     bordercolor="#000000"
     borderopacity="0.25"
     inkscape:showpageshadow="2"
     inkscape:pageopacity="0.0"
     inkscape:pagecheckerboard="0"
     inkscape:deskcolor="#d1d1d1"
     inkscape:document-units="mm"
     showgrid="false"
     inkscape:zoom="0.71446409"
     inkscape:cx="398.20056"
     inkscape:cy="561.25984"
     inkscape:window-width="1920"
     inkscape:window-height="974"
     inkscape:window-x="-11"
     inkscape:window-y="-11"
     inkscape:window-maximized="1"
     inkscape:current-layer="layer1" /><defs
     id="defs2"><filter
       inkscape:collect="always"
       style="color-interpolation-filters:sRGB"
       id="filter1172"
       x="-0.074999997"
       y="-0.075000007"
       width="1.15"
       height="1.15"><feGaussianBlur
         inkscape:collect="always"
         stdDeviation="4.5391778"
         id="feGaussianBlur1174" /></filter></defs><g
     inkscape:label="Layer 1"
     inkscape:groupmode="layer"
     id="layer1"><path
       id="path1276"
       style="mix-blend-mode:normal;stroke:none;stroke-dasharray:none;stroke-dashoffset:0;filter:url(#filter1172);fill:#dbdbdb;fill-opacity:1"
       transform="matrix(0.81,0,0,0.81,19.95,28.215)"
       d="M 32.373151,221.12684 V 75.87316 H 177.62685 v 145.25368 z" /><g
       fill="#233c57"
       fill-rule="evenodd"
       id="g218"
       transform="matrix(1.3229166,0,0,1.3229166,-212.49998,-74.390889)"
       style="mix-blend-mode:normal;stroke:none;stroke-dasharray:none;stroke-dashoffset:0"><path
         d="m 257.28772,143.4859 -1.53744,4.49822 3.8025,2.85181 -4.75187,-0.0725 -1.53814,4.4977 -1.39972,-4.54216 -4.75239,-0.0718 3.88705,-2.73606 -1.40024,-4.54146 3.8025,2.85181 z"
         stroke-width="1"
         stroke-linecap="butt"
         stroke-linejoin="round"
         stroke-miterlimit="2"
         id="path184" /><path
         d="m 221.23755,186.90067 3.51385,-0.32102 0.32101,3.51385 -3.51385,0.32101 z"
         data-paper-data="{&quot;index&quot;:null}"
         stroke-width="1"
         stroke-linecap="butt"
         stroke-linejoin="round"
         stroke-miterlimit="2"
         id="path186" /><path
         d="m 250.38075,152.70185 0.69285,1.66316 -1.09415,1.43161 -1.78672,-0.23191 -0.69285,-1.66315 1.09415,-1.43162 z"
         stroke-width="1"
         stroke-linecap="butt"
         stroke-linejoin="round"
         stroke-miterlimit="2"
         id="path188" /><path
         d="m 249.66662,156.60479 c 0.16859,0.78183 -9.3e-4,1.63077 -0.53639,2.30621 -0.94973,1.19801 -2.69302,1.39954 -3.89104,0.44982 -1.19801,-0.94973 -1.39955,-2.69302 -0.44982,-3.89104 0.51611,-0.65104 1.26655,-1.00796 2.03717,-1.0456 -0.45963,0.38353 -0.72316,0.98362 -0.6494,1.62167 0.11632,1.00619 1.02754,1.72893 2.03373,1.61262 0.65869,-0.0761 1.19561,-0.49287 1.45574,-1.05367 z"
         stroke-width="1"
         stroke-linecap="butt"
         stroke-linejoin="round"
         stroke-miterlimit="2"
         id="path190" /><path
         d="m 241.1985,168.79448 -3.91365,-2.95121 2.95121,-3.91366 3.91365,2.95122 z"
         stroke-width="1"
         stroke-linecap="butt"
         stroke-linejoin="round"
         stroke-miterlimit="2"
         id="path192" /><path
         d="m 244.66495,160.12725 -0.55974,4.81317 -3.91395,-2.95143 z"
         stroke-width="1"
         stroke-linecap="round"
         stroke-linejoin="miter"
         stroke-miterlimit="1.5"
         id="path194" /><path
         d="m 238.34157,172.64256 -3.91365,-2.95121 2.95121,-3.91366 3.91366,2.95121 z"
         stroke-width="1"
         stroke-linecap="butt"
         stroke-linejoin="round"
         stroke-miterlimit="2"
         id="path196" /><path
         d="m 228.79698,177.13812 3.91365,2.95122 -2.95121,3.91365 -3.91365,-2.95121 z"
         data-paper-data="{&quot;index&quot;:null}"
         stroke-width="1"
         stroke-linecap="butt"
         stroke-linejoin="round"
         stroke-miterlimit="2"
         id="path198" /><path
         d="m 225.33052,185.80535 0.55974,-4.81317 3.91395,2.95143 z"
         data-paper-data="{&quot;index&quot;:null}"
         stroke-width="1"
         stroke-linecap="round"
         stroke-linejoin="miter"
         stroke-miterlimit="1.5"
         id="path200" /><path
         d="m 231.65391,173.37869 3.91366,2.95121 -2.95121,3.91365 -3.91366,-2.95121 z"
         data-paper-data="{&quot;index&quot;:null}"
         stroke-width="1"
         stroke-linecap="butt"
         stroke-linejoin="round"
         stroke-miterlimit="2"
         id="path202" /><path
         d="m 234.57878,169.5651 3.91366,2.95121 -2.95122,3.91366 -3.91365,-2.95122 z"
         data-paper-data="{&quot;index&quot;:null}"
         stroke-width="1"
         stroke-linecap="butt"
         stroke-linejoin="round"
         stroke-miterlimit="2"
         id="path204" /><path
         d="m 260.6092,144.8197 c 0,0.75641 0.6132,1.36961 1.36962,1.36961 -0.75642,1e-5 -1.36962,0.61321 -1.36962,1.36962 0,-0.75641 -0.6132,-1.36961 -1.36961,-1.36962 0.75642,-1e-5 1.36961,-0.6132 1.36961,-1.36961 z"
         stroke-width="0.17306"
         stroke-linecap="butt"
         stroke-linejoin="round"
         stroke-miterlimit="10"
         id="path206" /><path
         d="m 245.93817,145.90576 c 0,0.75641 0.6132,1.36961 1.36962,1.36961 -0.75642,0 -1.36962,0.6132 -1.36962,1.36961 0,-0.75641 -0.6132,-1.36961 -1.36961,-1.36961 0.75642,0 1.36961,-0.6132 1.36961,-1.36961 z"
         stroke-width="0.17306"
         stroke-linecap="butt"
         stroke-linejoin="round"
         stroke-miterlimit="10"
         id="path208" /><path
         d="m 257.42334,152.90891 c 0,0.75641 0.6132,1.36961 1.36961,1.36962 -0.75642,0 -1.36961,0.6132 -1.36961,1.36961 0,-0.75641 -0.6132,-1.36961 -1.36962,-1.36961 0.75642,0 1.36962,-0.6132 1.36962,-1.36962 z"
         stroke-width="0.17306"
         stroke-linecap="butt"
         stroke-linejoin="round"
         stroke-miterlimit="10"
         id="path210" /><path
         d="m 226.603,187.56881 0.67477,-0.63146 0.63146,0.67478 -0.67478,0.63146 z"
         data-paper-data="{&quot;index&quot;:null}"
         stroke-width="1"
         stroke-linecap="butt"
         stroke-linejoin="round"
         stroke-miterlimit="2"
         id="path212" /><path
         d="m 218.02118,188.05899 0.67478,-0.63146 0.63145,0.67478 -0.67477,0.63145 z"
         data-paper-data="{&quot;index&quot;:null}"
         stroke-width="1"
         stroke-linecap="butt"
         stroke-linejoin="round"
         stroke-miterlimit="2"
         id="path214" /><path
         d="m 222.08254,193.31015 0.28912,-0.87776 0.87777,0.28911 -0.28912,0.87777 z"
         data-paper-data="{&quot;index&quot;:null}"
         stroke-width="1"
         stroke-linecap="butt"
         stroke-linejoin="round"
         stroke-miterlimit="2"
         id="path216" /></g></g></svg>
